<?xml version="1.0" standalone="no"?>
<!DOCTYPE svg PUBLIC "-//W3C//DTD SVG 20010904//EN"
 "http://www.w3.org/TR/2001/REC-SVG-20010904/DTD/svg10.dtd">
<svg version="1.0" xmlns="http://www.w3.org/2000/svg"
 width="433.000000pt" height="433.000000pt" viewBox="0 0 433.000000 433.000000"
 preserveAspectRatio="xMidYMid meet">
<metadata>
Created by potrace 1.14, written by Peter Selinger 2001-2017
</metadata>
<g transform="translate(0.000000,433.000000) scale(0.100000,-0.100000)"
fill="#000000" stroke="none">
<path d="M2686 3755 c-16 -12 -22 -12 -35 -2 -12 10 -13 9 -6 -2 6 -11 4 -13
-9 -8 -9 4 -15 3 -12 -2 3 -5 -2 -12 -11 -15 -9 -4 -20 -1 -25 6 -5 10 -8 8
-8 -5 0 -10 -4 -15 -10 -12 -10 6 -22 -2 -62 -40 -12 -12 -18 -14 -14 -5 4 8
-2 4 -14 -10 -12 -14 -18 -19 -14 -11 5 9 3 12 -4 7 -7 -4 -12 -14 -12 -22 0
-8 -5 -14 -11 -14 -5 0 -7 -5 -3 -12 5 -8 2 -9 -10 -5 -9 4 -15 3 -12 -2 3 -5
-4 -20 -15 -35 -11 -14 -17 -30 -14 -36 3 -5 1 -10 -4 -10 -6 0 -11 -9 -11
-21 0 -13 -4 -18 -12 -13 -8 5 -7 0 2 -11 11 -14 12 -17 1 -10 -11 6 -13 1 -9
-24 2 -17 0 -31 -5 -31 -5 0 -4 -6 2 -14 9 -11 9 -15 0 -18 -9 -3 -9 -9 1 -27
7 -15 8 -21 1 -17 -14 9 -14 0 -1 -25 7 -13 7 -19 0 -19 -5 0 -10 -5 -10 -11
0 -5 3 -8 8 -6 4 3 7 -5 7 -18 0 -16 -4 -21 -15 -17 -11 4 -10 -1 4 -16 13
-15 15 -22 6 -22 -10 0 -10 -3 0 -15 11 -13 10 -14 -4 -9 -12 5 -15 2 -10 -10
3 -9 10 -14 14 -11 5 3 6 -4 3 -15 -3 -11 -10 -20 -15 -20 -5 0 -7 -4 -3 -10
3 -5 13 -7 23 -4 16 5 16 5 0 -6 -19 -11 -26 -36 -8 -25 6 3 10 2 10 -4 0 -5
-6 -11 -12 -14 -10 -3 -10 -7 1 -20 8 -11 9 -17 2 -17 -7 0 -8 -8 -1 -26 6
-14 8 -29 5 -34 -3 -4 1 -10 9 -13 8 -3 13 -16 12 -31 -2 -14 1 -23 5 -20 5 3
9 -1 9 -9 0 -8 7 -18 16 -21 8 -3 12 -10 9 -16 -3 -5 -1 -10 5 -10 6 0 8 -4 5
-10 -3 -5 -1 -10 5 -10 15 0 40 -25 40 -40 0 -6 5 -8 10 -5 6 3 10 1 10 -4 0
-6 7 -11 16 -11 8 0 12 -4 9 -10 -3 -5 3 -10 13 -10 26 0 48 -26 30 -34 -7 -3
-3 -3 10 0 14 3 22 1 22 -7 0 -7 3 -9 7 -6 3 4 13 -2 20 -13 8 -11 19 -18 24
-15 5 4 9 1 9 -5 0 -6 5 -8 10 -5 6 3 10 1 10 -4 0 -6 7 -11 16 -11 8 0 12 -4
9 -10 -5 -9 7 -14 27 -11 4 0 10 -9 13 -20 6 -17 9 -18 23 -7 10 7 14 9 10 4
-10 -12 25 -43 41 -38 9 4 12 1 7 -6 -4 -7 -1 -12 8 -12 9 0 16 -4 16 -10 0
-5 7 -10 15 -10 8 0 15 -5 15 -12 0 -6 3 -9 6 -5 4 3 15 -4 26 -16 11 -12 17
-16 13 -10 -4 9 -1 11 9 7 9 -3 14 -10 11 -14 -3 -4 9 -13 25 -20 17 -7 30
-16 30 -21 0 -5 7 -9 15 -9 8 0 15 -4 15 -10 0 -5 6 -10 14 -10 8 0 16 -4 18
-9 2 -5 10 -11 18 -13 8 -2 22 -11 31 -20 9 -10 21 -18 28 -18 6 0 11 -4 11
-10 0 -5 7 -10 15 -10 8 0 15 -4 15 -8 0 -5 15 -19 33 -32 24 -18 28 -19 17
-5 -14 18 -14 18 11 0 15 -11 24 -24 21 -30 -3 -5 2 -4 11 4 15 12 17 12 11
-3 -5 -12 -2 -17 7 -15 22 4 49 -12 49 -28 0 -9 6 -13 15 -9 13 4 14 2 5 -14
-6 -11 -15 -20 -21 -20 -5 0 -22 -12 -36 -27 -15 -16 -22 -21 -18 -13 8 13 6
13 -8 1 -9 -7 -14 -17 -11 -22 3 -5 -2 -6 -10 -3 -9 3 -16 1 -16 -6 0 -6 -4
-9 -8 -6 -5 3 -14 -4 -22 -14 -8 -10 -17 -17 -22 -14 -4 3 -8 0 -8 -5 0 -6
-10 -11 -22 -11 -19 0 -20 -2 -8 -10 12 -8 10 -10 -8 -10 -15 0 -21 -4 -16
-12 4 -6 3 -8 -4 -4 -6 3 -17 -1 -25 -9 -9 -8 -21 -15 -27 -15 -6 0 -8 -4 -5
-10 6 -9 -8 -14 -27 -11 -5 0 -8 -4 -8 -11 0 -6 -3 -8 -7 -5 -3 4 -15 -5 -26
-20 -12 -19 -17 -21 -12 -8 6 19 5 19 -12 3 -50 -47 -60 -54 -73 -50 -8 3 -10
0 -5 -8 6 -10 4 -12 -8 -7 -12 4 -14 2 -10 -11 6 -15 5 -15 -11 -3 -9 8 -16
10 -15 5 3 -19 -1 -34 -12 -34 -5 0 -7 6 -4 13 4 6 0 4 -8 -5 -8 -10 -16 -15
-20 -12 -3 3 -8 -4 -12 -15 -3 -12 -11 -19 -16 -16 -5 4 -9 0 -9 -7 0 -9 -3
-9 -10 2 -7 11 -10 11 -10 2 0 -7 -4 -10 -10 -7 -6 3 -7 -1 -4 -9 4 -11 0 -16
-10 -16 -9 0 -16 -6 -16 -12 0 -9 -4 -8 -10 2 -9 13 -10 13 -11 0 -1 -8 -1
-18 0 -22 0 -4 -5 -5 -13 -2 -7 3 -16 -2 -20 -11 -3 -9 -10 -13 -16 -10 -6 3
-13 -1 -16 -10 -6 -13 -8 -14 -15 -3 -6 9 -9 7 -9 -8 0 -15 -6 -21 -17 -20
-11 0 -17 -5 -15 -13 3 -12 1 -12 -15 -1 -10 8 -15 11 -11 6 9 -11 -11 -31
-40 -40 -12 -4 -20 -12 -17 -17 4 -5 -1 -9 -9 -9 -9 0 -16 -7 -16 -16 0 -8 -4
-12 -10 -9 -5 3 -10 1 -10 -4 0 -6 -6 -11 -14 -11 -8 0 -17 -7 -20 -16 -6 -15
-4 -15 11 -3 15 12 15 11 -1 -8 -10 -13 -22 -20 -27 -17 -4 2 -6 -5 -4 -16 3
-14 -1 -20 -13 -20 -14 0 -14 -2 -3 -9 11 -7 10 -11 -5 -20 -14 -8 -15 -11 -4
-11 12 0 11 -3 -2 -11 -10 -5 -18 -15 -18 -20 0 -6 4 -7 10 -4 6 3 10 1 10 -4
0 -6 -5 -11 -11 -11 -7 0 -9 -10 -7 -25 3 -14 1 -25 -3 -25 -15 0 -10 -22 9
-37 9 -8 11 -12 5 -8 -18 9 -36 -4 -25 -18 5 -7 12 -21 16 -31 5 -16 4 -17 -8
-7 -12 10 -14 9 -9 -8 3 -12 9 -18 14 -15 5 3 5 -6 -1 -20 -5 -14 -5 -28 -1
-31 5 -3 7 -14 4 -25 -3 -11 -10 -17 -17 -13 -6 4 -6 0 2 -9 15 -19 25 -61 12
-53 -5 3 -11 1 -15 -5 -3 -5 -1 -10 6 -10 7 0 10 -2 7 -6 -3 -3 -2 -21 2 -40
5 -20 4 -34 -2 -34 -5 0 -6 -6 -1 -12 14 -23 14 -50 1 -42 -14 9 10 -26 27
-38 6 -5 5 -8 -3 -8 -7 0 -10 -5 -7 -10 4 -6 11 -8 16 -5 5 3 6 0 3 -8 -3 -8
2 -22 11 -31 9 -9 17 -24 18 -35 1 -12 6 -17 16 -13 10 4 13 1 8 -12 -4 -9 -3
-15 2 -12 11 7 53 -33 46 -44 -3 -6 0 -7 8 -5 7 3 26 -6 41 -20 28 -26 42 -33
31 -15 -3 6 1 7 9 4 9 -3 14 -10 11 -14 -3 -5 5 -6 17 -2 13 3 19 1 15 -5 -9
-15 7 -18 80 -18 33 0 59 -3 56 -7 -2 -5 7 -4 20 1 14 6 28 7 31 4 3 -4 6 -1
6 6 0 8 7 10 19 6 11 -3 22 -1 26 5 3 6 11 7 17 4 7 -5 9 -2 6 8 -5 11 0 14
18 12 17 -1 24 3 24 14 0 14 2 14 9 3 11 -17 25 3 15 22 -5 9 -4 9 6 0 10 -9
17 -7 32 10 11 12 17 15 13 7 -4 -8 1 -6 10 5 9 11 20 19 25 18 5 -2 14 6 20
18 9 16 14 18 26 8 12 -10 13 -9 8 5 -4 11 -2 16 7 14 8 -2 13 2 12 9 -2 8 4
10 14 6 11 -4 14 -3 9 5 -6 11 -1 14 20 11 3 0 11 7 18 17 8 11 18 14 26 9 10
-6 12 -4 7 9 -6 14 -3 16 13 11 15 -5 18 -3 14 9 -5 12 -2 15 12 9 12 -4 15
-3 10 5 -5 8 0 12 14 12 11 0 23 7 26 15 4 8 15 15 25 15 10 0 24 9 31 20 7
11 19 20 26 20 7 0 10 5 7 10 -3 6 1 10 10 10 10 0 14 5 10 13 -4 6 1 3 9 -7
16 -19 16 -19 16 2 0 16 4 20 17 15 11 -4 14 -3 9 5 -4 7 3 14 18 18 13 3 27
12 30 20 3 8 12 14 20 14 7 0 16 7 20 15 3 9 12 12 22 8 11 -4 15 -2 11 4 -4
5 5 15 18 21 14 7 25 17 25 23 0 6 6 9 13 6 7 -3 19 4 26 15 8 13 18 17 29 13
9 -3 13 -3 9 1 -7 7 54 54 71 54 6 0 13 7 16 16 4 9 13 14 22 10 8 -3 12 -2 9
4 -3 5 6 12 21 16 19 5 22 9 12 15 -12 8 -6 11 18 8 3 0 12 8 21 18 8 10 11
11 7 3 -7 -13 -5 -13 9 -1 9 7 15 17 12 21 -3 5 3 7 12 6 10 -2 26 8 36 21 10
12 24 23 31 23 6 0 18 9 26 19 7 11 17 18 22 15 4 -3 11 2 14 11 4 9 13 14 22
10 13 -5 13 -3 1 12 -9 11 -10 14 -1 9 6 -4 12 -3 12 3 0 6 12 17 28 25 15 9
20 16 12 16 -12 0 -11 3 3 11 9 6 14 15 11 21 -4 7 -2 8 4 4 7 -4 12 -2 12 4
0 6 5 8 12 4 6 -4 8 -3 4 4 -3 6 1 17 9 25 8 9 15 23 15 32 0 9 4 14 9 11 5
-3 12 1 15 10 4 10 2 13 -6 8 -12 -8 -7 4 23 47 10 14 16 29 12 33 -3 3 -1 6
6 6 7 0 10 4 7 9 -4 5 0 12 6 14 9 4 9 6 -1 6 -11 1 -10 5 5 17 10 8 13 13 7
9 -7 -3 -13 -1 -13 4 0 6 5 11 10 11 6 0 10 5 10 11 0 5 -6 7 -12 3 -7 -4 -5
2 5 14 13 14 17 28 12 43 -5 13 -2 24 6 29 7 5 14 16 15 24 1 9 -2 13 -9 9 -7
-4 -8 0 -3 12 4 11 2 22 -6 27 -9 5 -7 8 7 8 17 0 17 2 5 10 -8 5 -10 10 -4
10 5 0 10 11 10 25 0 14 -5 25 -10 25 -6 0 -4 5 4 10 13 9 13 10 0 10 -9 0
-11 3 -5 8 13 9 13 72 0 65 -5 -3 -5 0 1 6 14 16 6 53 -10 45 -6 -3 -3 1 7 9
12 10 15 17 7 22 -8 5 -8 11 1 21 9 11 8 14 -2 14 -9 0 -10 3 -4 8 9 6 12 78
5 107 -1 6 -1 12 0 15 9 24 6 40 -8 40 -15 1 -15 2 1 11 10 6 14 15 10 22 -14
22 -14 49 -1 41 8 -5 7 0 -2 10 -8 11 -13 29 -12 42 2 13 -2 24 -8 24 -8 0 -8
6 0 20 6 11 7 20 3 19 -4 -1 -15 -1 -23 0 -13 1 -13 2 0 11 12 8 13 11 1 19
-11 7 -11 9 0 14 10 4 10 6 2 6 -7 1 -13 10 -13 21 0 11 -5 20 -11 20 -6 0 -9
9 -6 20 3 11 0 18 -6 17 -6 -1 -13 8 -15 21 -2 12 -8 20 -13 17 -5 -3 -6 1 -3
9 4 10 1 16 -7 16 -12 0 -12 2 -1 9 10 6 8 10 -8 14 -15 4 -21 11 -17 21 4 9
3 15 -1 13 -4 -1 -19 9 -32 22 -14 13 -19 21 -13 17 9 -5 11 -2 7 8 -3 9 -13
16 -21 16 -8 0 -11 5 -8 10 3 6 -3 10 -14 10 -14 0 -19 5 -15 15 5 11 2 13
-12 8 -11 -4 -15 -3 -11 4 4 6 -1 17 -10 24 -14 12 -16 12 -8 0 5 -10 4 -12
-3 -7 -7 4 -12 15 -13 24 0 10 -3 12 -6 5 -3 -8 -13 -4 -29 12 -14 14 -32 25
-40 25 -8 0 -13 4 -9 9 3 5 -5 13 -17 17 -13 3 -31 15 -41 25 -10 11 -23 17
-28 13 -5 -3 -8 0 -7 8 2 8 -6 13 -18 12 -14 0 -20 4 -17 13 3 7 -2 13 -11 13
-9 0 -16 5 -16 10 0 6 -7 10 -15 10 -8 0 -15 5 -15 11 0 8 -4 8 -14 0 -12 -10
-14 -9 -10 6 4 14 -1 19 -18 20 -13 1 -29 11 -37 23 -7 11 -20 20 -28 20 -8 0
-11 5 -7 12 4 6 3 8 -4 4 -6 -3 -18 1 -26 10 -12 11 -16 12 -16 2 0 -7 -6 -4
-12 7 -21 36 -34 45 -47 32 -8 -8 -11 -7 -11 5 0 9 -9 20 -20 23 -11 3 -20 11
-20 16 0 6 -4 7 -10 4 -5 -3 -10 -1 -10 5 0 6 -4 8 -10 5 -5 -3 -10 1 -10 10
0 9 -4 13 -10 10 -5 -3 -10 -1 -10 4 0 6 -6 10 -12 9 -7 -2 -12 3 -10 10 1 8
-2 11 -8 7 -5 -3 -10 -1 -10 5 0 6 -4 8 -10 5 -5 -3 -10 -1 -10 4 0 6 -4 10
-9 9 -5 -2 -17 6 -26 17 -9 11 -13 13 -9 5 5 -9 -1 -8 -15 5 -13 11 -26 20
-30 20 -3 0 -5 5 -5 12 1 6 -5 9 -12 6 -8 -3 -14 0 -14 6 0 6 -7 11 -15 11 -8
0 -20 9 -27 20 -7 11 -16 20 -21 20 -4 0 -5 -5 -1 -12 5 -7 3 -8 -5 -4 -7 5
-10 15 -7 23 3 8 2 12 -3 9 -5 -3 -14 1 -21 9 -6 7 -18 11 -26 8 -9 -3 -14 2
-15 13 0 11 -3 14 -6 7 -3 -8 -13 -4 -29 12 -14 14 -29 25 -34 25 -5 0 -19 10
-31 23 -12 12 -19 15 -15 7 5 -9 2 -8 -7 3 -8 9 -20 17 -26 17 -7 0 -9 4 -6
10 3 6 -1 7 -9 4 -9 -3 -16 -1 -16 6 0 6 -4 9 -9 6 -5 -3 -14 1 -21 9 -8 10
-23 13 -42 10 -16 -3 -27 -2 -24 3 2 4 -4 8 -15 8 -10 0 -19 -5 -19 -11 0 -5
-4 -4 -9 4 -8 12 -12 12 -25 2 -15 -12 -20 -8 -17 12 1 10 -1 9 -23 -8z m164
-25 c0 -5 -2 -10 -4 -10 -3 0 -8 5 -11 10 -3 6 -1 10 4 10 6 0 11 -4 11 -10z
m465 -2810 c-3 -5 -12 -10 -18 -10 -7 0 -6 4 3 10 19 12 23 12 15 0z"/>
<path d="M1498 3747 c-7 -8 -19 -12 -27 -9 -8 3 -11 0 -7 -7 5 -7 1 -9 -8 -5
-10 4 -16 1 -16 -7 0 -7 -3 -9 -7 -6 -3 4 -13 1 -21 -6 -13 -9 -14 -9 -8 0 5
9 2 11 -8 7 -9 -3 -14 -11 -13 -17 1 -7 -6 -11 -15 -11 -10 1 -16 -3 -15 -10
1 -6 -5 -11 -13 -11 -18 0 -40 -17 -34 -26 2 -4 -3 -10 -12 -13 -10 -4 -13 -2
-8 7 3 6 -4 1 -17 -13 -13 -14 -20 -19 -15 -10 6 8 -10 -4 -35 -26 -24 -23
-52 -40 -62 -39 -9 2 -14 -1 -11 -7 3 -5 -3 -12 -15 -15 -12 -3 -21 -10 -21
-15 0 -5 -4 -7 -9 -4 -5 3 -11 -4 -14 -15 -3 -12 -10 -18 -15 -15 -15 9 -42
-4 -42 -21 0 -9 -6 -13 -15 -9 -10 3 -15 -1 -15 -12 0 -15 -2 -15 -10 -2 -8
13 -10 12 -10 -3 0 -10 -4 -15 -10 -12 -5 3 -10 1 -10 -5 0 -6 -4 -8 -10 -5
-5 3 -10 -2 -10 -12 0 -15 -2 -16 -10 -3 -8 13 -10 13 -10 -1 0 -10 -7 -16
-17 -15 -12 1 -17 -5 -15 -17 3 -16 0 -17 -18 -7 -15 8 -20 8 -18 -1 2 -7 -14
-21 -34 -31 -21 -10 -38 -23 -38 -29 0 -5 -4 -8 -9 -5 -5 3 -11 -1 -15 -9 -3
-8 -12 -15 -21 -15 -8 0 -15 -4 -15 -10 0 -5 -6 -10 -14 -10 -8 0 -18 -5 -22
-12 -5 -7 -3 -8 6 -3 9 5 11 4 6 -4 -6 -9 -11 -9 -22 0 -12 10 -13 9 -9 -4 4
-8 1 -18 -6 -23 -8 -4 -10 -3 -5 4 4 7 2 12 -3 12 -6 0 -11 -5 -11 -11 0 -5
-13 -15 -30 -20 -16 -6 -30 -15 -30 -21 0 -5 6 -6 13 -2 7 4 9 3 4 -2 -9 -9
-13 -10 -42 -13 -8 0 -15 -8 -15 -16 0 -8 -6 -12 -14 -9 -7 3 -22 -6 -32 -19
-11 -13 -25 -22 -32 -19 -6 2 -12 -1 -12 -7 0 -6 -7 -11 -15 -11 -8 0 -15 -7
-15 -16 0 -12 -6 -15 -21 -11 -17 4 -18 3 -8 -9 9 -12 9 -13 -3 -9 -8 3 -27
-6 -42 -20 -15 -14 -32 -25 -37 -25 -6 0 -7 -6 -3 -12 5 -8 2 -8 -10 1 -9 8
-16 10 -15 5 4 -21 -2 -34 -13 -31 -7 1 -12 -4 -11 -10 2 -7 -2 -13 -8 -13
-15 0 -59 -52 -53 -62 3 -4 -3 -5 -12 -1 -11 4 -15 3 -10 -5 3 -6 -3 -16 -14
-22 -11 -6 -20 -15 -20 -21 0 -6 6 -7 13 -3 6 3 -1 -5 -17 -18 -17 -14 -26
-30 -22 -36 4 -7 2 -12 -4 -12 -7 0 -9 -7 -6 -16 3 -8 2 -13 -3 -10 -9 6 -24
-19 -26 -40 0 -6 -7 -20 -15 -30 -13 -16 -13 -17 0 -9 12 6 13 5 3 -6 -7 -7
-13 -23 -13 -36 0 -13 -5 -23 -11 -23 -8 0 -7 -6 2 -17 12 -14 12 -16 0 -8
-11 6 -13 2 -9 -19 4 -19 1 -26 -10 -26 -13 0 -12 -3 4 -16 19 -15 19 -16 0
-9 -20 6 -20 6 0 -16 10 -12 13 -19 7 -15 -7 4 -13 2 -13 -4 0 -6 -4 -8 -10
-5 -6 3 -7 -1 -4 -9 3 -9 10 -16 16 -16 5 0 6 -5 3 -11 -4 -5 -9 -25 -11 -42
-4 -26 -3 -29 7 -17 9 12 10 11 4 -5 -12 -36 -16 -67 -7 -61 10 6 9 -30 -1
-40 -12 -12 -8 -26 5 -18 7 4 8 3 4 -5 -11 -18 -18 -63 -8 -57 10 6 9 -30 -1
-40 -12 -12 -8 -26 5 -18 7 4 8 3 4 -5 -11 -18 -18 -63 -8 -57 10 6 9 -24 0
-40 -4 -5 -3 -16 2 -24 5 -8 5 -22 -1 -32 -7 -13 -6 -18 2 -18 8 0 8 -4 -1
-15 -7 -8 -8 -15 -3 -15 10 0 10 -2 14 -57 1 -18 7 -33 13 -33 6 0 4 -4 -4
-10 -12 -8 -12 -11 1 -27 8 -10 15 -30 14 -45 -1 -23 1 -25 14 -15 12 10 13 9
7 -2 -5 -8 -3 -17 5 -22 11 -7 11 -9 1 -9 -10 0 -9 -4 2 -16 9 -8 14 -19 11
-24 -3 -5 0 -10 5 -12 6 -2 12 -13 13 -25 1 -16 4 -19 13 -12 9 8 11 5 7 -12
-4 -15 -3 -20 5 -15 8 5 12 0 12 -13 0 -11 9 -22 21 -26 17 -6 19 -9 8 -16
-11 -7 -10 -9 5 -9 11 0 16 -3 13 -6 -7 -7 30 -44 45 -44 4 0 8 -7 8 -15 0 -8
4 -15 9 -15 4 0 21 -12 38 -27 35 -34 69 -57 77 -54 11 3 34 -24 28 -33 -3 -5
0 -6 6 -2 6 3 13 2 17 -4 4 -6 11 -8 16 -5 5 4 9 -1 9 -9 0 -14 12 -20 33 -17
4 0 7 -6 7 -15 0 -8 4 -13 9 -9 6 3 14 -3 20 -12 8 -13 10 -14 11 -4 0 11 4 9
15 -5 8 -10 15 -15 15 -11 0 5 7 1 16 -7 8 -9 21 -13 27 -9 7 4 6 -1 -2 -11
-8 -9 -10 -16 -5 -15 17 3 54 -13 54 -23 0 -6 7 -8 15 -5 8 4 17 1 21 -5 5 -7
2 -8 -6 -3 -9 5 -11 4 -6 -3 4 -7 14 -12 22 -12 8 0 14 -7 14 -15 0 -9 6 -12
15 -9 8 4 15 1 15 -5 0 -6 7 -8 15 -5 11 5 13 2 8 -11 -5 -15 -2 -17 15 -13
13 4 20 2 19 -6 -1 -6 4 -10 11 -8 6 1 12 -5 12 -13 0 -9 6 -12 15 -9 9 4 15
0 15 -10 0 -9 8 -16 20 -16 11 0 25 -9 32 -20 7 -11 20 -20 28 -20 9 0 22 -9
30 -20 11 -15 17 -17 29 -7 12 9 13 9 7 0 -4 -8 -2 -13 4 -13 6 0 8 -5 4 -12
-5 -7 0 -9 14 -6 12 3 20 3 19 -1 -1 -3 0 -6 3 -6 11 0 38 -30 33 -37 -2 -4 3
-5 11 -2 9 3 16 1 16 -5 0 -6 7 -11 15 -11 8 0 15 -7 15 -16 0 -14 2 -15 17
-3 13 11 15 11 9 1 -5 -9 -1 -15 14 -19 16 -4 18 -8 8 -14 -9 -6 -6 -9 12 -10
14 -1 29 0 35 1 5 1 7 -1 3 -5 -10 -10 18 -36 41 -38 11 -1 18 -3 16 -6 -9 -8
17 -31 36 -31 10 0 21 -5 25 -12 5 -7 3 -8 -6 -3 -8 5 -11 4 -6 -3 4 -6 14 -8
23 -5 11 4 14 3 9 -5 -5 -8 2 -12 19 -12 21 0 26 -4 21 -16 -6 -15 -4 -15 11
-3 15 12 16 12 9 -5 -7 -20 -6 -20 14 -1 20 18 21 18 14 0 -6 -14 -4 -17 9
-12 9 3 19 2 22 -3 3 -5 13 -6 21 -3 9 3 20 0 25 -8 6 -10 9 -10 9 -1 0 6 7
12 15 12 8 0 15 -4 15 -10 0 -5 5 -10 11 -10 5 0 8 4 5 9 -3 4 10 7 29 5 20
-1 35 2 35 8 0 6 3 8 7 5 3 -4 13 -1 21 6 13 10 15 9 8 -3 -4 -8 0 -6 8 4 9
11 16 15 16 8 0 -6 7 -9 15 -6 11 5 13 10 5 19 -8 9 -5 11 13 8 23 -5 72 28
60 41 -3 3 1 6 10 6 10 0 17 5 17 10 0 6 7 10 16 10 8 0 12 5 9 10 -3 6 -1 10
4 10 6 0 11 7 11 16 0 10 6 14 14 11 11 -4 13 -1 9 10 -4 11 -2 14 5 9 8 -5
10 -2 6 8 -3 9 -1 16 6 16 6 0 8 5 5 10 -3 6 -1 10 5 10 6 0 9 4 6 8 -3 5 1
20 8 34 11 20 11 29 2 39 -8 9 -8 10 0 6 7 -4 13 4 16 23 2 16 1 27 -3 25 -4
-3 -6 6 -5 20 0 14 6 25 11 25 6 0 3 5 -5 10 -8 5 -10 10 -5 10 14 0 14 40 0
40 -5 0 -3 5 5 10 8 5 10 10 5 10 -6 0 -11 9 -11 20 0 13 5 19 13 15 10 -3 11
0 4 13 -5 9 -11 31 -14 49 -3 17 -8 37 -12 43 -3 6 -3 10 2 9 29 -5 36 3 13
17 -14 8 -18 13 -10 11 12 -4 15 5 13 42 -1 25 -3 48 -4 51 -1 3 -1 8 0 13 0
4 -3 7 -9 7 -5 0 -10 5 -10 11 0 5 6 7 13 3 6 -4 5 1 -4 12 -9 10 -14 25 -11
33 3 9 0 11 -8 6 -10 -6 -12 -3 -6 11 4 10 4 15 0 11 -4 -4 -16 5 -25 20 -14
21 -15 29 -6 35 8 5 4 8 -10 8 -12 0 -25 5 -29 12 -5 7 -2 9 7 4 8 -4 5 0 -6
9 -11 9 -19 21 -17 26 1 6 -2 8 -7 5 -13 -8 -42 4 -35 15 3 5 0 9 -5 9 -6 0
-20 9 -31 20 -12 12 -25 18 -30 15 -6 -4 -10 -1 -10 5 0 6 -8 14 -17 17 -10 4
-27 15 -37 25 -11 10 -26 18 -33 18 -7 0 -13 5 -13 10 0 6 -7 10 -15 10 -9 0
-18 7 -21 15 -4 8 -10 12 -15 9 -5 -3 -9 -1 -9 4 0 5 -9 12 -20 15 -11 3 -20
13 -20 22 0 13 -3 15 -13 7 -10 -9 -17 -6 -27 8 -8 11 -20 20 -27 20 -7 0 -13
5 -13 10 0 6 -7 10 -16 10 -8 0 -13 4 -9 9 5 9 -32 27 -47 23 -5 -1 -8 4 -8
12 0 16 -27 29 -42 19 -6 -3 -8 -2 -5 4 4 6 -5 15 -18 21 -14 7 -25 17 -25 23
0 7 -10 9 -26 6 -18 -3 -22 -1 -15 6 12 12 -15 36 -42 37 -10 0 -15 5 -12 10
6 9 -8 14 -27 11 -5 0 -8 3 -8 9 0 5 -7 10 -16 10 -9 0 -12 5 -8 12 5 8 2 9
-10 5 -9 -4 -14 -3 -11 2 3 5 -4 12 -15 16 -11 4 -18 10 -15 15 3 4 -3 7 -13
6 -9 0 -16 5 -14 12 3 16 -10 16 -27 0 -10 -9 -12 -9 -7 -1 3 6 2 14 -4 18 -6
4 -8 10 -5 15 3 5 -3 7 -14 5 -21 -4 -37 20 -20 30 5 4 7 11 4 16 -4 5 -1 9 4
9 6 0 11 -4 11 -10 0 -9 23 6 56 38 8 7 14 10 14 6 0 -4 11 5 24 21 13 15 28
25 34 21 5 -3 13 1 16 10 4 9 9 14 13 10 3 -3 12 3 20 14 8 11 20 17 28 14 10
-4 15 0 15 11 0 11 5 15 16 11 8 -3 12 -2 9 4 -3 6 1 10 10 10 8 0 18 7 21 15
4 8 10 12 15 9 5 -3 9 -1 9 4 0 5 9 12 21 15 12 3 18 10 14 17 -3 6 -3 10 2 9
24 -4 43 4 64 26 13 13 30 25 37 25 7 0 15 7 18 15 4 8 12 15 20 15 8 0 14 5
14 11 0 5 16 17 35 25 19 8 35 20 35 27 0 8 4 7 10 -3 8 -13 10 -12 10 3 0 10
4 16 9 13 5 -3 12 1 15 10 3 8 10 13 15 9 6 -3 15 4 21 15 6 11 15 18 19 15 5
-3 12 2 15 11 4 10 14 14 25 11 15 -3 18 -1 14 11 -4 10 -2 13 5 8 6 -3 15 1
20 10 6 10 16 15 26 11 9 -3 15 -3 15 1 -3 20 2 32 14 29 6 -1 11 4 9 12 -3
12 0 12 12 1 14 -10 16 -10 16 5 0 11 5 15 15 11 8 -3 14 0 12 7 -1 7 4 11 11
9 8 -1 11 2 7 8 -3 5 -1 10 4 10 6 0 11 6 11 14 0 8 4 18 10 21 6 4 7 -1 4
-12 -6 -15 -4 -15 9 2 8 11 13 24 9 29 -3 5 2 7 10 3 9 -3 15 0 15 6 -1 31 4
48 12 43 5 -3 12 1 15 10 3 9 2 12 -5 8 -6 -3 -5 3 2 14 7 12 18 18 24 14 5
-3 4 2 -4 11 -9 12 -10 21 -3 30 5 6 8 23 6 36 -4 21 -3 22 13 10 15 -12 16
-12 8 1 -13 20 -15 35 -19 108 -1 35 1 65 5 68 5 2 6 11 3 19 -4 8 -11 12 -17
8 -6 -3 -7 -1 -3 6 4 6 12 9 17 6 5 -4 9 -2 9 4 0 5 -8 15 -17 20 -17 10 -17
10 0 11 9 0 17 5 17 11 0 5 -4 8 -8 5 -11 -7 -11 48 1 55 4 3 1 13 -8 23 -14
14 -14 16 -1 16 8 0 18 4 21 10 3 5 0 7 -8 4 -11 -4 -14 4 -12 30 1 21 -4 37
-11 40 -7 3 -11 14 -9 26 2 11 -1 20 -7 20 -6 0 -5 6 2 16 11 12 11 15 -1 12
-8 -2 -13 3 -11 10 1 8 -2 11 -8 7 -5 -3 -10 -1 -10 5 0 6 -6 8 -12 4 -10 -5
-10 -4 -1 6 8 9 4 19 -18 43 -16 16 -29 35 -29 41 0 6 -5 4 -10 -4 -8 -13 -10
-12 -10 3 0 10 -4 15 -10 12 -5 -3 -10 2 -10 12 0 15 -2 16 -10 3 -6 -9 -10
-10 -10 -3 0 6 -16 17 -34 24 -19 7 -33 16 -30 21 8 13 -11 9 -25 -4 -10 -11
-12 -10 -9 2 2 8 -3 14 -9 13 -7 -2 -13 2 -13 8 0 8 -5 8 -15 -1 -12 -10 -15
-10 -15 0 0 10 -3 10 -15 0 -12 -10 -15 -10 -15 0 0 10 -3 10 -14 1 -11 -9
-20 -10 -36 -1 -16 9 -25 8 -38 -2 -11 -9 -14 -10 -8 0 10 16 1 15 -16 -1z
m-148 -1297 c0 -5 -5 -10 -11 -10 -5 0 -7 5 -4 10 3 6 8 10 11 10 2 0 4 -4 4
-10z"/>
<path d="M1180 3571 c0 -7 -5 -9 -12 -5 -7 5 -8 3 -3 -5 5 -9 10 -10 18 -2 6
6 8 14 4 18 -4 3 -7 1 -7 -6z"/>
<path d="M1973 3105 c0 -8 4 -12 9 -9 5 3 6 10 3 15 -9 13 -12 11 -12 -6z"/>
<path d="M3290 2226 c0 -2 8 -10 18 -17 15 -13 16 -12 3 4 -13 16 -21 21 -21
13z"/>
</g>
</svg>
