<?xml version="1.0" standalone="no"?>
<!DOCTYPE svg PUBLIC "-//W3C//DTD SVG 20010904//EN"
 "http://www.w3.org/TR/2001/REC-SVG-20010904/DTD/svg10.dtd">
<svg version="1.0" xmlns="http://www.w3.org/2000/svg"
 width="433.000000pt" height="433.000000pt" viewBox="0 0 433.000000 433.000000"
 preserveAspectRatio="xMidYMid meet">
<metadata>
Created by potrace 1.14, written by Peter Selinger 2001-2017
</metadata>
<g transform="translate(0.000000,433.000000) scale(0.100000,-0.100000)"
fill="#000000" stroke="none">
<path d="M1838 2969 c-33 -8 -148 -74 -148 -86 0 -2 5 -1 12 3 7 4 8 3 4 -5
-4 -6 -11 -9 -16 -6 -5 3 -28 -6 -50 -21 -31 -20 -38 -30 -28 -37 9 -6 8 -7
-5 -3 -12 4 -56 -20 -133 -71 -110 -74 -114 -77 -92 -90 13 -7 19 -12 15 -13
-5 0 -17 5 -28 11 -15 8 -25 6 -44 -9 -13 -11 -21 -23 -17 -27 4 -5 1 -5 -6
-1 -18 11 -125 -73 -118 -91 3 -8 2 -12 -3 -9 -13 8 -44 -31 -35 -45 4 -7 3
-10 -3 -6 -6 4 -21 -16 -34 -46 -20 -45 -23 -73 -27 -210 -6 -229 13 -309 99
-402 50 -54 425 -309 441 -299 6 4 8 3 5 -3 -9 -15 155 -121 204 -132 23 -5
47 -8 53 -6 6 2 24 6 39 10 25 5 27 8 15 23 -12 15 -11 16 4 3 15 -11 22 -11
43 3 32 21 67 76 60 94 -3 7 -1 10 4 7 14 -8 24 97 18 185 -6 89 -28 142 -55
134 -13 -5 -14 -4 -3 4 19 14 1 29 -244 192 -114 76 -209 141 -211 143 -2 2
48 39 111 82 63 43 112 82 108 88 -3 6 -1 7 5 3 6 -4 36 10 67 30 57 38 71 52
33 34 -22 -11 -22 -10 -4 4 10 9 23 13 28 10 4 -3 35 14 69 37 79 56 99 95
106 208 10 157 -23 249 -105 290 -49 24 -89 30 -134 20z m117 -71 c6 -4 2 -8
-7 -8 -10 0 -18 7 -18 17 0 9 3 12 8 7 4 -5 12 -12 17 -16z m-209 -25 c-6 -13
-17 -23 -23 -23 -16 0 -17 16 -3 25 6 4 8 10 5 15 -3 5 3 8 13 7 15 -1 17 -5
8 -24z m312 -179 c0 -74 -3 -133 -6 -129 -3 3 -6 61 -5 128 1 67 -1 111 -4 98
-4 -19 -7 -21 -14 -10 -7 11 -9 9 -9 -8 0 -12 5 -25 10 -28 15 -9 8 -173 -7
-179 -15 -6 -23 21 -25 89 -2 86 12 150 36 162 11 6 22 11 23 12 1 0 2 -60 1
-135z m-298 102 c0 -15 -7 -26 -19 -29 -17 -4 -17 -2 -4 24 18 35 23 36 23 5z
m-165 -16 c3 -5 2 -10 -4 -10 -5 0 -13 5 -16 10 -3 6 -2 10 4 10 5 0 13 -4 16
-10z m-109 -79 c-8 -13 -76 -52 -76 -43 0 4 17 17 38 29 42 25 45 26 38 14z
m484 -21 c-20 -13 -50 -13 -50 0 0 6 15 10 33 10 24 0 28 -3 17 -10z m-603
-72 c-3 -7 -5 -2 -5 12 0 14 2 19 5 13 2 -7 2 -19 0 -25z m-26 -5 c13 -16 12
-17 -3 -4 -10 7 -18 15 -18 17 0 8 8 3 21 -13z m694 -72 c3 -5 1 -12 -5 -16
-5 -3 -10 1 -10 9 0 18 6 21 15 7z m-70 -41 c3 -5 1 -10 -4 -10 -6 0 -11 5
-11 10 0 6 2 10 4 10 3 0 8 -4 11 -10z m-33 -51 c-13 -5 -30 -5 -38 -1 -9 5
-1 8 23 9 33 1 35 0 15 -8z m-155 -85 c-3 -3 -12 -4 -19 -1 -8 3 -5 6 6 6 11
1 17 -2 13 -5z m-43 -40 c3 -8 2 -12 -4 -9 -6 3 -10 10 -10 16 0 14 7 11 14
-7z m-66 -38 c14 5 14 4 2 -4 -18 -13 -30 -6 -29 16 1 16 2 16 6 0 3 -11 11
-15 21 -12z m-561 -178 c-2 -29 -3 -8 -3 47 0 55 1 79 3 53 2 -26 2 -71 0
-100z m436 95 c-7 -2 -19 -2 -25 0 -7 3 -2 5 12 5 14 0 19 -2 13 -5z m-43 -22
c0 -12 -20 -25 -27 -18 -7 7 6 27 18 27 5 0 9 -4 9 -9z m35 -1 c3 -5 1 -10 -4
-10 -6 0 -11 5 -11 10 0 6 2 10 4 10 3 0 8 -4 11 -10z m-70 -40 c3 -5 -1 -10
-9 -10 -9 0 -16 5 -16 10 0 6 4 10 9 10 6 0 13 -4 16 -10z m-352 -161 c-5 -5
-8 3 -7 19 2 43 7 50 11 18 3 -16 1 -32 -4 -37z m124 -91 c2 -17 0 -19 -7 -8
-5 8 -6 18 -4 22 8 12 10 10 11 -14z m-76 -15 c13 -16 12 -17 -3 -4 -10 7 -18
15 -18 17 0 8 8 3 21 -13z m39 13 c0 -3 -4 -8 -10 -11 -5 -3 -10 -1 -10 4 0 6
5 11 10 11 6 0 10 -2 10 -4z m57 -18 c-3 -8 -6 -5 -6 6 -1 11 2 17 5 13 3 -3
4 -12 1 -19z m-57 -28 c0 -5 11 -10 25 -10 26 0 34 -15 13 -23 -7 -3 -1 -6 15
-6 20 -1 31 -8 40 -28 6 -16 16 -32 22 -36 6 -5 4 -7 -5 -4 -8 2 -21 14 -27
28 -10 19 -13 20 -13 6 0 -10 -4 -16 -10 -12 -5 3 -6 13 -3 22 5 12 2 15 -10
10 -9 -3 -17 -2 -17 3 0 6 -8 10 -17 10 -14 0 -15 2 -4 9 11 7 9 10 -8 16 -21
6 -29 25 -11 25 6 0 10 -4 10 -10z m847 -242 c-2 -18 -4 -4 -4 32 0 36 2 50 4
33 2 -18 2 -48 0 -65z m-23 -123 c-4 -8 -10 -15 -16 -15 -5 0 -6 -4 -3 -10 3
-5 1 -10 -4 -10 -16 0 -14 11 6 32 20 22 24 23 17 3z m-190 -64 c4 -5 -3 -7
-14 -4 -23 6 -26 13 -6 13 8 0 17 -4 20 -9z"/>
<path d="M2405 2965 c-22 -8 -41 -15 -43 -15 -2 0 0 -4 3 -10 3 -5 0 -7 -8 -4
-16 6 -64 -45 -78 -85 -14 -36 -23 -230 -10 -211 7 9 11 10 11 3 0 -6 -4 -14
-9 -17 -10 -7 0 -61 18 -94 7 -12 16 -20 21 -17 6 3 7 0 4 -8 -4 -10 45 -49
162 -128 92 -62 174 -112 180 -112 7 0 11 -4 9 -8 -3 -4 24 -25 59 -48 70 -44
82 -56 66 -66 -6 -4 -9 -1 -8 7 2 7 -3 12 -11 10 -8 -2 -117 -73 -243 -158
-269 -183 -268 -182 -276 -336 -5 -111 8 -177 44 -226 45 -58 131 -89 199 -71
37 10 38 12 20 25 -10 8 -14 14 -9 14 6 0 15 -5 22 -12 8 -8 31 2 92 42 79 52
80 53 65 76 -10 15 -11 24 -4 24 6 0 13 -9 16 -20 3 -11 7 -20 9 -20 2 0 56
35 119 77 97 65 113 79 103 92 -10 13 -10 14 2 4 14 -13 55 1 45 16 -2 5 3 8
13 7 11 -1 16 6 15 18 -1 12 2 15 9 8 13 -13 61 15 52 29 -3 5 1 6 9 4 18 -8
97 72 129 131 40 75 51 151 45 325 -4 146 -20 235 -38 223 -5 -3 -6 1 -3 9 14
36 -149 193 -189 182 -16 -5 -18 -4 -8 3 10 7 -16 30 -108 91 -67 45 -127 79
-133 75 -6 -4 -8 -3 -5 3 8 13 -100 86 -114 78 -5 -4 -8 -1 -7 7 2 7 -5 12
-14 12 -10 -1 -16 3 -15 8 3 14 -92 66 -133 72 -20 3 -52 0 -75 -9z m40 -15
c-3 -5 -14 -10 -23 -10 -15 0 -15 2 -2 10 20 13 33 13 25 0z m-95 -40 c0 -5
-5 -10 -11 -10 -5 0 -7 5 -4 10 3 6 8 10 11 10 2 0 4 -4 4 -10z m250 -10 c0
-5 -5 -10 -11 -10 -5 0 -7 5 -4 10 3 6 8 10 11 10 2 0 4 -4 4 -10z m485 -348
c2 -18 -1 -32 -6 -32 -5 0 -9 3 -10 8 -5 43 -3 62 4 59 6 -2 11 -17 12 -35z
m82 -104 c-3 -8 -6 -5 -6 6 -1 11 2 17 5 13 3 -3 4 -12 1 -19z m-307 -252 c0
-2 -7 -9 -15 -16 -13 -11 -14 -10 -9 4 5 14 24 23 24 12z m-229 -183 c7 -7 8
-17 3 -25 -5 -7 -10 -22 -11 -32 -4 -25 -2 -24 -43 -27 -30 -3 -35 -1 -33 16
1 10 -3 27 -8 37 -6 11 -6 18 0 18 5 0 12 -6 14 -12 4 -10 8 -10 15 1 6 8 19
12 31 8 12 -3 21 -1 21 4 0 5 -12 9 -26 9 -14 0 -23 4 -20 8 7 12 44 8 57 -5z
m589 -31 l-1 -27 -13 25 c-15 25 -12 45 5 35 5 -4 9 -18 9 -33z m-725 -52 c3
-6 -1 -7 -9 -4 -18 7 -21 14 -7 14 6 0 13 -4 16 -10z m725 6 c0 -3 -4 -8 -10
-11 -5 -3 -10 -1 -10 4 0 6 5 11 10 11 6 0 10 -2 10 -4z m-778 -48 c-7 -7 -12
-8 -12 -2 0 6 3 14 7 17 3 4 9 5 12 2 2 -3 -1 -11 -7 -17z m-92 -44 c0 -8 -4
-12 -10 -9 -5 3 -10 -1 -10 -9 0 -9 -4 -16 -8 -16 -4 0 -8 9 -8 19 0 11 4 18
7 15 4 -2 10 0 14 6 9 15 15 12 15 -6z m810 -3 c0 -5 -7 -12 -16 -15 -14 -5
-15 -4 -4 9 14 17 20 19 20 6z m-873 -93 c-3 -8 -6 -5 -6 6 -1 11 2 17 5 13 3
-3 4 -12 1 -19z m760 0 c-3 -8 -6 -5 -6 6 -1 11 2 17 5 13 3 -3 4 -12 1 -19z
m-53 -37 c4 -5 -3 -7 -14 -4 -23 6 -26 13 -6 13 8 0 17 -4 20 -9z m-114 -76
c0 -11 -29 -11 -33 -1 -4 10 1 12 14 9 10 -3 19 -7 19 -8z m-40 -30 c0 -2 -10
-10 -22 -16 -21 -11 -22 -11 -9 4 13 16 31 23 31 12z m-90 -60 c-7 -8 -17 -15
-23 -15 -6 0 -2 8 9 19 22 21 33 19 14 -4z m-100 -59 c0 -11 -19 -15 -25 -6
-3 5 1 10 9 10 9 0 16 -2 16 -4z m-42 -34 c-10 -2 -18 -7 -18 -11 0 -4 -7 -8
-15 -8 -8 0 -15 3 -15 6 0 10 44 28 55 22 6 -3 2 -7 -7 -9z"/>
</g>
</svg>
